<svg id="Capa_1" enable-background="new 0 0 512 512" height="512" viewBox="0 0 512 512" width="512" xmlns="http://www.w3.org/2000/svg"><g><path d="m512 242.814-35.533-40.733 4.467-40.734-11.44-30h-118.832l-20 111.57 20 122.736h161.338z" fill="#00aa95"/><path d="m300.662 131.347 20 234.306h30v-234.306z" fill="#00cc76"/><path d="m416.34 161.347v81.467h95.66l-31.066-81.467z" fill="#323c3c"/><path d="m0 288.761v76.892h320.662v-76.892l-160.331-20z" fill="#00aa95"/><path d="m320.662 258.761-160.331-20-160.331 20v30h320.662z" fill="#00cc76"/><path d="m320.662 99.454h-53.444l-20 79.653 20 79.654h53.444z" fill="#0b799d"/><path d="m213.774 99.454-20 79.653 20 79.654h53.444v-159.307z" fill="#00aa95"/><path d="m160.331 99.454-20 79.653 20 79.654h53.443v-159.307z" fill="#0b799d"/><path d="m106.887 99.454-20 79.653 20 79.654h53.444v-159.307z" fill="#00aa95"/><path d="m53.443 99.454-20 79.653 20 79.654h53.444v-159.307z" fill="#0b799d"/><path d="m0 99.454h53.443v159.306h-53.443z" fill="#00aa95"/><circle cx="427.554" cy="365.653" fill="#2d2d2d" r="46.893"/><circle cx="427.554" cy="365.653" fill="#b4d2d7" r="16.893"/><path d="m95.678 412.546c-25.856 0-46.893-21.036-46.893-46.893s21.036-46.893 46.893-46.893 46.894 21.036 46.894 46.893-21.037 46.893-46.894 46.893z" fill="#323c3c"/><path d="m95.678 348.761c-9.314 0-16.893 7.578-16.893 16.893s7.578 16.893 16.893 16.893 16.894-7.578 16.894-16.893-7.579-16.893-16.894-16.893z" fill="#e1ebf0"/><circle cx="223.249" cy="365.653" fill="#323c3c" r="46.893"/><circle cx="223.249" cy="365.653" fill="#e1ebf0" r="16.893"/></g></svg>